<svg id="Layer_1" data-name="Layer 1" xmlns="http://www.w3.org/2000/svg" viewBox="0 0 15.5 15.6"><g id="Components"><g id="Homepage---Darker-Button-Area-V1"><path id="c" d="M7.8,15.5a7.73,7.73,0,0,0,7.7-7.8A7.79,7.79,0,0,0,7.8-.1,7.88,7.88,0,0,0,0,7.7,7.81,7.81,0,0,0,7.8,15.5Zm0-1.5A6.17,6.17,0,0,1,1.6,7.8,6.2,6.2,0,1,1,7.8,14Zm2.4-3.3.6-.8c.1-.2.1-.4-.1-.5L8.6,7.9V3.5a.43.43,0,0,0-.4-.4h-1a.43.43,0,0,0-.4.4V8.6c0,.1.1.2.2.3l2.7,1.9C9.8,10.9,10.1,10.8,10.2,10.7Z" transform="translate(0 0.1)"/></g></g></svg>